<?xml version="1.0" encoding="UTF-8" standalone="no"?>
<!-- Created with Inkscape (http://www.inkscape.org/) -->

<svg
   xmlns:dc="http://purl.org/dc/elements/1.1/"
   xmlns:cc="http://creativecommons.org/ns#"
   xmlns:rdf="http://www.w3.org/1999/02/22-rdf-syntax-ns#"
   xmlns:svg="http://www.w3.org/2000/svg"
   xmlns="http://www.w3.org/2000/svg"
   xmlns:sodipodi="http://sodipodi.sourceforge.net/DTD/sodipodi-0.dtd"
   xmlns:inkscape="http://www.inkscape.org/namespaces/inkscape"
   width="532"
   height="527.53125"
   id="svg3002"
   version="1.1"
   inkscape:version="0.48.0 r9654"
   sodipodi:docname="spider_circle_gray.svg">
  <defs
     id="defs3004" />
  <sodipodi:namedview
     id="base"
     pagecolor="#000000"
     bordercolor="#666666"
     borderopacity="1.0"
     inkscape:pageopacity="1"
     inkscape:pageshadow="2"
     inkscape:zoom="0.87885424"
     inkscape:cx="213.06775"
     inkscape:cy="208.07779"
     inkscape:document-units="px"
     inkscape:current-layer="layer1"
     showgrid="false"
     fit-margin-top="0"
     fit-margin-left="0"
     fit-margin-right="0"
     fit-margin-bottom="0"
     inkscape:window-width="1111"
     inkscape:window-height="1261"
     inkscape:window-x="20"
     inkscape:window-y="20"
     inkscape:window-maximized="0" />
  <metadata
     id="metadata3007">
    <rdf:RDF>
      <cc:Work
         rdf:about="">
        <dc:format>image/svg+xml</dc:format>
        <dc:type
           rdf:resource="http://purl.org/dc/dcmitype/StillImage" />
        <dc:title></dc:title>
      </cc:Work>
    </rdf:RDF>
  </metadata>
  <g
     inkscape:label="Layer 1"
     inkscape:groupmode="layer"
     id="layer1"
     transform="translate(-118.38905,-78.95315)">
    <path
       style="fill:#7d1313;fill-opacity:1"
       d="m 268.84375,-29.34375 c -45.20158,0 -87.75513,11.297098 -125.03125,31.1875 0.48017,0.8220368 0.13092,1.5603986 -1.1875,3.46875 -4.45391,6.44683 -14.84372,27.54446 -19.34375,39.3125 l -4.8125,12.625 -1.1875,20.4375 c -0.65049,11.24725 -1.26711,39.7875 -1.34375,63.4375 -0.13477,41.58822 -0.0582,43.21341 2.03125,49.5 1.18822,3.575 4.05342,12.8 6.34375,20.5 8.15494,27.41663 17.26443,54.15209 21.59375,63.25 2.41716,5.07958 4.40625,10.11887 4.40625,11.1875 0,2.29173 2.51879,5.0625 4.59375,5.0625 0.80407,0 5.23998,3.7125 9.84375,8.25 9.83399,9.69243 17.67685,16.5456 21.96875,19.125 1.69266,1.01727 4.44375,3.12052 6.09375,4.6875 3.20176,3.04068 9.41187,7.68696 21.5,16.09375 8.98646,6.24972 16.46379,12.47106 23.625,19.6875 2.91291,2.93538 5.7688,5.04284 6.34375,4.6875 1.51835,-0.93839 1.26051,-4.71838 -0.59375,-9.15625 -1.99981,-4.78622 -1.27392,-16.57432 1.71875,-28 2.23299,-8.5253 2.09276,-11.16985 -0.40625,-7.09375 -0.92042,1.50126 -2.41323,3.89119 -3.28125,5.3125 -1.51144,2.47484 -1.65955,2.50934 -3.5,0.84375 -2.77405,-2.51048 -2.37875,-5.78951 1.53125,-12.78125 3.64542,-6.51863 8.247,-10.17879 11.46875,-9.15625 4.73708,1.50349 7.0758,11.76468 3.78125,16.65625 -1.83433,2.72353 -4.33687,15.53812 -3.25,16.625 0.33374,0.33373 1.13041,0.0571 1.78125,-0.59375 0.65083,-0.65083 2.09125,-1.17939 3.21875,-1.1875 1.1275,-0.008 3.1875,-0.67548 4.5625,-1.46875 5.47808,-3.16046 7.0752,-3.50753 11.28125,-2.5625 2.29512,0.51568 4.74111,1.70388 5.4375,2.65625 1.11053,1.51873 1.56062,1.56344 3.78125,0.375 2.73473,-1.46359 4.07861,-0.75325 4.65625,2.4375 0.19088,1.05443 0.9791,2.11829 1.75,2.375 1.05446,0.35114 1.23446,-0.11285 0.71875,-1.90625 -0.37703,-1.31113 -1.37544,-6.20108 -2.21875,-10.84375 -0.84331,-4.64266 -1.95568,-9.22882 -2.46875,-10.1875 -2.24912,-4.20251 0.0436,-12.875 3.40625,-12.875 1.72254,0 10.124,8.85953 12.0625,12.71875 2.21472,4.40914 2.01219,5.79788 -1.0625,7.8125 -2.58201,1.6918 -2.69247,1.65359 -4.46875,-0.65625 -2.31124,-3.00551 -2.43069,-1.01392 -0.28125,5.125 2.08253,5.94785 2.09046,21.9524 0,27.8125 -1.22888,3.44483 -1.3164,4.69253 -0.34375,6.25 1.72578,2.76341 3.92874,2.41535 7.3125,-1.15625 3.99552,-4.21731 19.4883,-17.40763 27.4375,-23.375 10.64693,-7.99253 33.77343,-27.57647 44.625,-37.78125 5.57433,-5.24209 11.08683,-10.06499 12.25,-10.6875 1.16316,-0.6225 2.125,-1.67776 2.125,-2.375 0,-0.69724 1.85877,-5.07284 4.125,-9.71875 5.74827,-11.78429 9.1093,-21.38942 22.34375,-63.84375 7.06707,-22.67021 7.68098,-25.35116 8.6875,-38 1.38359,-17.38783 0.42685,-86.91707 -1.4375,-104.625 C 419.5331,55.8953 419.13789,54.76102 404.375,20.90625 401.14264,13.493694 398.46005,6.6448301 397.625,3.875 359.46986,-17.274958 315.55924,-29.34375 268.84375,-29.34375 z m -130.5625,34.25 c -59.082162,33.361375 -104.158881,88.634562 -124.125,154.8125 0.42749,1.84198 0.857856,3.72178 1.15625,5.21875 1.03748,5.20483 4.00021,14.30811 10.4375,32.1875 1.18814,3.3 3.78797,9.375 5.78125,13.5 1.99327,4.125 5.70587,12 8.25,17.5 2.54413,5.5 8.96384,17.97484 14.25,27.71875 l 9.59375,17.71875 18.9375,20.78125 c 25.71663,28.23387 39.43411,41.96134 44.40625,44.375 2.29299,1.1131 4.71315,2.67127 5.375,3.46875 0.66185,0.79748 1.77435,1.4375 2.46875,1.4375 0.6944,0 2.02508,1.13872 2.9375,2.53125 0.91242,1.39252 2.08913,2.26868 2.625,1.9375 0.53587,-0.33119 2.42957,0.30047 4.21875,1.40625 3.87409,2.39432 25.15305,10.46431 32.21875,12.21875 2.74315,0.68113 5.9,1.83004 7,2.53125 1.1,0.7012 9.2,2.41222 18,3.8125 8.8,1.40027 19.6,3.21723 24,4.03125 10.24917,1.89613 12.5,1.91789 12.5,0.0937 0,-2.61548 -22.14034,-21.48658 -37,-31.53125 -14.07945,-9.51727 -34.31955,-25.42818 -44.5,-34.96875 -2.75,-2.57715 -5.67082,-5.11042 -6.5,-5.625 -4.20296,-2.60833 -10.20922,-14.22619 -14.625,-28.375 C 131.12801,257.07823 121.51422,226.87443 114,203.625 l -4.03125,-12.5 -0.40625,-37.5 c -0.63589,-59.74136 2.15663,-93.10534 9.25,-110.4375 5.25048,-12.82918 11.01832,-24.74912 15.15625,-31.28125 1.51487,-2.3913801 3.08886,-4.9218206 4.3125,-7 z M 402,6.34375 c 0.74632,1.431098 1.54138,3.0506003 2.46875,5.03125 2.76832,5.9125 7.24408,15.37293 9.9375,21 2.69342,5.62707 4.90625,10.70425 4.90625,11.28125 0,0.577 1.06829,3.60407 2.375,6.75 4.04611,9.74108 5.94945,29.15045 7.59375,77.21875 1.5068,44.0484 1.36753,55.49172 -0.84375,64.75 -1.77939,7.45004 -4.5845,17.22685 -7.8125,27.25 -0.79709,2.475 -2.49178,7.875 -3.75,12 -1.25822,4.125 -3.6851,10.99092 -5.40625,15.25 -1.72116,4.25908 -3.41079,9.65908 -3.75,12 -2.72243,18.78759 -12.19696,34.37583 -31.25,51.40625 -12.40994,11.09253 -16.79839,14.50095 -38.28125,29.84375 -9.50273,6.78674 -35.33857,29.66841 -36.28125,32.125 -0.48843,1.27281 -0.12492,1.48843 1.65625,1.0625 1.24371,-0.2974 7.425,-1.27085 13.75,-2.1875 6.325,-0.91664 15.775,-2.81038 21,-4.1875 5.225,-1.37711 11.9235,-2.92482 14.875,-3.4375 7.79739,-1.35444 28.65605,-9.36055 34.6875,-13.3125 1.52335,-0.99814 5.32836,-2.09847 8.46875,-2.46875 5.13792,-0.60581 6.38358,-1.28251 12.46875,-6.625 9.02152,-7.92045 31.17154,-31.03573 36.625,-38.21875 2.40196,-3.16372 7.29662,-9.20359 10.875,-13.4375 15.94806,-18.86962 23.29263,-29.46648 29.6875,-42.8125 3.03068,-6.325 5.98841,-12.4 6.59375,-13.5 4.65307,-8.45529 10.31117,-21.16013 13.21875,-29.75 1.90454,-5.62658 5.9712,-16.775 9.0625,-24.75 4.1426,-10.68714 6.03966,-15.6157 7.96875,-21.25 C 502.82672,93.187795 459.13219,39.444199 402,6.34375 z M 11.96875,167.40625 c -5.9399378,22.08453 -9.125,45.28962 -9.125,69.25 0,56.34195 17.552641,108.58338 47.4375,151.59375 6.441804,1.18004 12.434854,2.25407 15.53125,2.78125 4.95,0.84277 11.41922,2.23381 14.375,3.0625 9.46251,2.65296 24.5248,3.53125 59.3125,3.53125 37.15647,0 39.31825,-0.22228 64.6875,-6.625 7.40866,-1.86981 15.91224,-3.375 19.0625,-3.375 10.34868,0 12.63698,-5.17751 2.875,-6.5 -2.92663,-0.39648 -6.51481,-1.33324 -8,-2.09375 -1.48519,-0.76051 -5.52013,-1.40625 -8.9375,-1.40625 -9.7693,0 -25.29685,-3.06344 -47.875,-9.4375 -12.55689,-3.54494 -28.95608,-11.77136 -36,-18.0625 -3.07905,-2.75 -18.10221,-17.92392 -33.375,-33.71875 C 60.55187,283.94782 62.92546,287.29886 41.9375,245.5 28.353681,218.44695 19.799004,196.38696 11.96875,167.40625 z m 513.875,0.5 c -1.24665,3.58202 -3.54838,8.6919 -6.75,14.96875 -1.04705,2.05277 -3.46318,8.53905 -5.375,14.4375 -1.91181,5.89846 -4.57904,12.72571 -5.9375,15.15625 -1.35846,2.43055 -2.46875,4.97778 -2.46875,5.65625 0,1.3738 -2.62822,6.84278 -12.4375,26 -3.66109,7.15 -9.08698,17.95 -12.0625,24 -5.37807,10.935 -12.66791,20.96423 -22.5625,31 -2.71132,2.75 -8.4709,9.275 -12.78125,14.5 -11.62717,14.09443 -26.4664,30.29852 -31.59375,34.5 -5.57942,4.57191 -23.35574,14.5 -25.96875,14.5 -1.05676,0 -2.66294,0.655 -3.53125,1.4375 -0.86831,0.78249 -6.2875,2.61242 -12.0625,4.0625 -5.775,1.45009 -13.24933,3.46957 -16.625,4.5 -3.37567,1.03043 -11.25067,2.65241 -17.5,3.59375 -6.24933,0.94134 -12.57731,2.31685 -14.0625,3.0625 -1.48519,0.74565 -5.6489,1.34375 -9.21875,1.34375 -6.33292,0 -9.24744,1.38381 -6.53125,3.0625 4.53344,2.80182 57.04748,9.10638 76.4375,9.1875 30.31922,0.12682 81.17799,-6.4444 107,-13.84375 0.48976,-0.14034 1.22573,-0.29163 2.0625,-0.46875 25.95134,-41.06735 40.96875,-89.73462 40.96875,-141.90625 0,-23.78142 -3.14555,-46.8136 -9,-68.75 z M 489.40625,385.375 c -7.68013,1.50185 -14.6339,3.15994 -18.3125,4.4375 -10.91585,3.79104 -22.74105,5.90056 -41.28125,7.375 -9.9,0.78732 -21.375,1.95592 -25.5,2.59375 -8.38607,1.29668 -11.97475,1.2746 -44,-0.15625 -13.66556,-0.61056 -26.81906,-1.79708 -33.5,-3 -14.5697,-2.62332 -18.5,-2.60071 -18.5,0 0,1.16705 1.19235,2.58246 2.90625,3.46875 3.74293,1.93554 11.54553,10.87474 14,16.03125 1.05213,2.21038 5.10131,8.90789 9,14.90625 3.89869,5.99836 7.09375,11.27176 7.09375,11.71875 0,0.447 1.95612,3.8641 4.34375,7.59375 2.38763,3.72965 6.47001,10.8872 9.09375,15.90625 2.62374,5.01905 6.95637,11.99405 9.625,15.5 0.66715,0.87649 1.32443,1.73166 1.90625,2.53125 50.38985,-19.83933 93.25443,-54.64573 123.15625,-98.90625 -0.01,0.002 -0.0213,-0.002 -0.0312,0 z M 54.875,394.6875 c 30.397274,41.09089 72.35712,73.11867 121.0625,91.28125 4.12906,-6.25044 10.86264,-17.51403 15.15625,-25.34375 9.21489,-16.80402 14.76983,-26.27472 22.03125,-37.59375 2.85795,-4.45494 5.1875,-8.61999 5.1875,-9.28125 0,-0.66126 3.15,-4.55739 7,-8.625 3.85,-4.06761 7,-7.69543 7,-8.0625 0,-1.15776 -10.9502,0.5731 -27,4.25 -8.58512,1.96679 -19.29203,3.74461 -24,3.96875 -4.675,0.22258 -11.65,0.65801 -15.5,0.96875 -3.85,0.31073 -21.175,-0.36723 -38.5,-1.5 -25.79514,-1.68657 -34.12605,-2.62678 -46,-5.125 -7.788086,-1.63857 -19.487232,-3.81073 -26.4375,-4.9375 z m 249.4375,9.9375 c -1.10519,0 2.28965,7.03223 5.5625,11.5 4.195,5.72661 7.19618,13.06914 10.5625,26 3.2819,12.60659 3.3805,13.55644 3.25,31.09375 -0.0685,9.20682 -0.39498,16.92857 -1,23.96875 10.84331,-2.22857 21.43206,-5.08924 31.75,-8.59375 -2.13551,-3.93088 -4.91097,-9.19369 -7.875,-14.96875 -6.06915,-11.825 -11.73868,-22.85 -12.625,-24.5 -0.88632,-1.65 -2.31729,-4.575 -3.15625,-6.5 -4.33168,-9.93904 -23.87355,-38 -26.46875,-38 z m -69.75,2.8125 c -0.58857,0.0691 -1.61362,0.73862 -3,2.125 -3.80282,3.80281 -11.59977,16.83513 -22.6875,38 -4.49013,8.57101 -9.38846,17.37486 -10.875,19.5625 -1.48654,2.18764 -2.6875,4.37246 -2.6875,4.84375 0,0.41778 -3.68732,8.17781 -8.4375,17.8125 10.78352,3.48995 21.88142,6.30524 33.21875,8.40625 -1.13472,-7.55601 -1.26493,-13.25934 -1.25,-28.5625 l 0,-22.5 3.34375,-10 c 3.87129,-11.57749 8.11511,-21.26037 11.15625,-25.53125 1.94441,-2.73068 2.19969,-4.27137 1.21875,-4.15625 z"
       transform="translate(115.5453,108.2969)"
       id="path2983"
       inkscape:connector-curvature="0" />
  </g>
</svg>
